<?xml version="1.0" encoding="UTF-8" standalone="no"?>
<svg width="141px" height="119px" viewBox="0 0 141 119" version="1.1" xmlns="http://www.w3.org/2000/svg" xmlns:xlink="http://www.w3.org/1999/xlink">
    <defs></defs>
    <g id="Page-1" stroke="none" stroke-width="1" fill="none" fill-rule="evenodd">
        <g id="unhcr_Julgava2015_rod" transform="translate(1.000000, 0.000000)">
            <path d="M0.139442231,29.4223108 L0.139442231,112.52988 C0.139442231,115.59761 2.64940239,118.10757 5.71713147,118.10757 L134.003984,118.10757 C137.071713,118.10757 139.581673,115.59761 139.581673,112.52988 L139.581673,29.4223108 L0.139442231,29.4223108" id="Fill-1" fill="#006DAB"></path>
            <path d="M0.139442231,29.4223108 L0.139442231,112.52988 C0.139442231,115.59761 2.64940239,118.10757 5.71713147,118.10757 L134.003984,118.10757 C137.071713,118.10757 139.581673,115.59761 139.581673,112.52988 L139.581673,29.4223108 L0.139442231,29.4223108 L0.139442231,29.4223108 Z" id="Stroke-2" stroke="#006DAB" stroke-width="0.5"></path>
            <path d="M139.581673,5.99601594 C139.581673,2.92828685 137.071713,0.418326693 134.003984,0.418326693 L5.71713147,0.418326693 C2.64940239,0.418326693 0.139442231,2.92828685 0.139442231,5.99601594 L0.139442231,29.9800797 L52.9484462,29.9800797 L69.8605578,41.1354582 L86.7721116,29.9800797 L139.581673,29.9800797 L139.581673,5.99601594" id="Fill-4" fill="#FFFFFF"></path>
            <path d="M139.581673,5.99601594 C139.581673,2.92828685 137.071713,0.418326693 134.003984,0.418326693 L5.71713147,0.418326693 C2.64940239,0.418326693 0.139442231,2.92828685 0.139442231,5.99601594 L0.139442231,29.9800797 L52.9484462,29.9800797 L69.8605578,41.1354582 L86.7721116,29.9800797 L139.581673,29.9800797 L139.581673,5.99601594 L139.581673,5.99601594 Z" id="Stroke-5" stroke="#FFFFFF" stroke-width="0.5"></path>
            <path d="M39.0694821,56.6369721 C39.0733865,57.8573705 40.0260558,58.3303586 41.1064542,58.327012 C41.8131474,58.3247809 42.8918725,58.1139442 42.8890837,57.1768924 C42.8857371,56.1729084 41.4968924,56.0373705 40.158247,55.669243 C38.7950598,55.3390438 37.4184861,54.7656574 37.4123506,53.0678088 C37.4062151,51.1792032 39.1760159,50.2862151 40.8342629,50.2800797 C42.7496414,50.2733865 44.5133068,51.1044622 44.5205578,53.2245418 L42.567251,53.2312351 C42.4986454,52.1391235 41.7261355,51.8457371 40.7500398,51.8496414 C40.1069323,51.8513147 39.3623108,52.1240637 39.3650996,52.8954582 C39.3673307,53.6015936 39.8046215,53.7031076 42.1076494,54.2731474 C42.789243,54.4259761 44.8351394,54.8688446 44.8418327,56.9381673 C44.8479681,58.6215139 43.5411155,59.8870916 41.034502,59.8949004 C39.0031076,59.9021514 37.0849402,58.9059761 37.1156175,56.6425498 L39.0694821,56.6369721" id="Fill-7" fill="#FFFFFF"></path>
            <path d="M49.5404781,59.647251 L47.5101992,59.6550598 L45.212749,53.016494 L47.1281275,53.0098008 L48.5443028,57.5422311 L48.5705179,57.5422311 L49.9560159,53.0003187 L51.7682072,52.994741 L49.5404781,59.647251" id="Fill-8" fill="#FFFFFF"></path>
            <path d="M56.7329084,55.587251 C56.5622311,54.6619124 56.1628685,54.1744223 55.2760159,54.1783267 C54.092988,54.1822311 53.8001594,55.0830279 53.7639044,55.5978486 L56.7329084,55.587251 L56.7329084,55.587251 Z M53.7683665,56.7546614 C53.8230279,57.923745 54.3774502,58.4368924 55.4059761,58.432988 C56.1383267,58.4296414 56.729004,57.9778486 56.8427888,57.5662151 L58.4491633,57.5606375 C57.9404781,59.1430279 56.8500398,59.8028685 55.3457371,59.8078884 C53.250757,59.8151394 51.9478088,58.3805578 51.9411155,56.323506 C51.9338645,54.3311554 53.3043028,52.809004 55.3228685,52.8023108 C57.5846215,52.794502 58.6968127,54.6937052 58.5623904,56.7373705 L53.7683665,56.7546614 L53.7683665,56.7546614 Z" id="Fill-9" fill="#FFFFFF"></path>
            <path d="M59.5909163,52.9679681 L61.3261355,52.9618327 L61.3300398,54.1956175 L61.3551394,54.1956175 C61.6992829,53.3595219 62.5588048,52.7783267 63.4713147,52.7744223 C63.612988,52.7744223 63.7423904,52.7995219 63.8706773,52.8385657 L63.8768127,54.534741 C63.7089243,54.4968127 63.4389641,54.4717131 63.2203187,54.4728287 C61.8705179,54.4778486 61.423745,55.4299602 61.4276494,56.6113147 L61.438247,59.6070916 L59.6126693,59.6137849 L59.5909163,52.9679681" id="Fill-10" fill="#FFFFFF"></path>
            <path d="M64.5985657,52.9512351 L66.4241434,52.9439841 L66.4464542,59.5909163 L64.6208765,59.5976096 L64.5985657,52.9512351 L64.5985657,52.9512351 Z M66.420239,51.9171315 L64.5952191,51.9232669 L64.5901992,50.4184064 L66.4152191,50.4122709 L66.420239,51.9171315 L66.420239,51.9171315 Z" id="Fill-11" fill="#FFFFFF"></path>
            <path d="M72.4335458,56.1639841 C72.4296414,55.0841434 72.0537052,54.1208765 70.8706773,54.1253386 C69.8427092,54.1281275 69.3959363,55.0300398 69.3992829,56.0195219 C69.4026295,56.9710757 69.7529084,58.0113147 70.8840637,58.0074104 C71.9254183,58.0040637 72.4368924,57.1155378 72.4335458,56.1639841 L72.4335458,56.1639841 Z M74.178247,59.1396813 C74.1821514,60.2323506 73.7900398,62.0858167 70.7440637,62.0958566 C69.432749,62.1003187 67.9133865,61.4756175 67.8057371,59.9718725 L69.6190438,59.9657371 C69.7880478,60.6456574 70.3285259,60.8760159 70.9844622,60.8737849 C71.9996016,60.8698805 72.4603187,60.1871713 72.4441434,59.2227888 L72.4413546,58.3498805 L72.4156972,58.3498805 C72.0191235,59.0576892 71.2360159,59.381753 70.4266932,59.3845418 C68.4203984,59.3906773 67.5803984,57.8763347 67.5742629,56.0518725 C67.5681275,54.3294821 68.5659761,52.7571315 70.4166534,52.7515538 C71.2901195,52.7487649 71.9471713,53.0427092 72.3995219,53.8118725 L72.4262948,53.8118725 L72.4229482,52.9250199 L74.1581673,52.9188845 L74.178247,59.1396813 L74.178247,59.1396813 Z" id="Fill-12" fill="#FFFFFF"></path>
            <path d="M80.0560159,55.5086056 C79.8853386,54.5838247 79.4865339,54.0963347 78.5991235,54.0996813 C77.4160956,54.1035857 77.1232669,55.0038247 77.087012,55.5186454 L80.0560159,55.5086056 L80.0560159,55.5086056 Z M77.0909163,56.6754582 C77.1461355,57.8450996 77.7,58.3571315 78.7290837,58.3537849 C79.4614343,58.3521116 80.0515538,57.899761 80.1658964,57.4875697 L81.7722709,57.4831076 C81.2641434,59.0643825 80.1725896,59.7253386 78.6688446,59.7298008 C76.5738645,59.7359363 75.2709163,58.3013546 75.2642231,56.2448606 C75.2569721,54.2519522 76.6274104,52.7303586 78.6454183,52.7242231 C80.9071713,52.7164143 82.0193625,54.614502 81.885498,56.6587251 L77.0909163,56.6754582 L77.0909163,56.6754582 Z" id="Fill-13" fill="#FFFFFF"></path>
            <path d="M86.6694821,54.0974502 L85.5784861,54.1013546 L85.5745817,52.8809562 L86.6655777,52.8770518 L86.6644622,52.3622311 C86.6605578,51.1792032 87.3912351,50.3414343 88.8815936,50.3375299 C89.2028685,50.3352988 89.5375299,50.3726693 89.8454183,50.3849402 L89.8504382,51.7475697 C89.6323506,51.7219124 89.4003187,51.710757 89.1816733,51.7113147 C88.680239,51.7124303 88.4878088,51.9193625 88.4905976,52.4715538 L88.4917131,52.8709163 L89.7522709,52.8664542 L89.7556175,54.0874104 L88.4961753,54.0913147 L88.5140239,59.5161753 L86.6884462,59.521753 L86.6694821,54.0974502" id="Fill-14" fill="#FFFFFF"></path>
            <path d="M94.0571315,50.3062948 L95.7917928,50.3007171 L95.796255,51.8055777 L94.0610359,51.8105976 L94.0571315,50.3062948 L94.0571315,50.3062948 Z M93.6081275,58.3030279 C94.854741,58.2991235 95.2234263,57.2438247 95.2195219,56.1768127 C95.2156175,55.1103586 94.840239,54.0439044 93.5936255,54.0489243 C92.3598406,54.0528287 91.9900398,55.1209562 91.9939442,56.1874104 C91.9967331,57.2544223 92.3743426,58.3069323 93.6081275,58.3030279 L93.6081275,58.3030279 Z M91.4082869,50.3152191 L93.143506,50.3090837 L93.1485259,51.8128287 L91.4133068,51.8184064 L91.4082869,50.3152191 L91.4082869,50.3152191 Z M93.5880478,52.6729084 C95.6824701,52.6662151 97.0372908,54.0500398 97.0456574,56.1717928 C97.0517928,58.2779283 95.7064542,59.6717928 93.6120319,59.6784861 C91.5293227,59.6862948 90.1761753,58.3013546 90.1689243,56.1946614 C90.1616733,54.0729084 91.5053386,52.6801594 93.5880478,52.6729084 L93.5880478,52.6729084 Z" id="Fill-15" fill="#FFFFFF"></path>
            <path d="M98.1550598,52.8385657 L99.8908367,52.8324303 L99.8941833,54.0662151 L99.9192829,54.0662151 C100.264542,53.2284462 101.122948,52.647251 102.036574,52.6450199 C102.177131,52.6439044 102.306534,52.669004 102.435378,52.7069323 L102.440398,54.4042231 C102.273625,54.3662948 102.003665,54.341753 101.78502,54.3423108 C100.435777,54.3462151 99.9878884,55.2994422 99.9917928,56.4824701 L100.00239,59.4776892 L98.1779283,59.4832669 L98.1550598,52.8385657" id="Fill-16" fill="#FFFFFF"></path>
            <path d="M32.5776096,80.1050996 C32.5776096,86.1211952 29.3241434,89.0098805 22.6984064,89.0098805 C16.0704382,89.0098805 12.7862948,86.1211952 12.7862948,80.1050996 L12.7862948,66.7917131 L19.4728287,66.7917131 L19.4728287,78.6158566 C19.4728287,80.832988 19.4728287,83.6011952 22.7279681,83.6011952 C25.8882869,83.6011952 25.8882869,80.832988 25.8882869,78.6158566 L25.8882869,66.7917131 L32.5776096,66.7917131 L32.5776096,80.1050996" id="Fill-17" fill="#FFFFFF"></path>
            <path d="M36.5885259,66.7917131 L43.4273307,66.7917131 L49.7485259,78.4005578 L49.8093227,78.4005578 L49.8093227,66.7917131 L56.1310757,66.7917131 L56.1310757,88.4939442 L49.6269323,88.4939442 L42.9710757,76.6391235 L42.9091633,76.6391235 L42.9091633,88.4939442 L36.5885259,88.4939442 L36.5885259,66.7917131" id="Fill-18" fill="#FFFFFF"></path>
            <path d="M60.2356972,66.7917131 L66.9222311,66.7917131 L66.9222311,74.3316335 L73.1854183,74.3316335 L73.1854183,66.7917131 L79.87251,66.7917131 L79.87251,88.4939442 L73.1854183,88.4939442 L73.1854183,79.8903586 L66.9222311,79.8903586 L66.9222311,88.4939442 L60.2356972,88.4939442 L60.2356972,66.7917131" id="Fill-19" fill="#FFFFFF"></path>
            <path d="M96.9848606,74.8765737 C96.8627092,74.0867729 96.2552988,71.6866932 93.4882072,71.6866932 C90.3574502,71.6866932 89.3545817,74.7231873 89.3545817,77.6408765 C89.3545817,80.560239 90.3574502,83.6011952 93.4882072,83.6011952 C95.7393625,83.6011952 96.6189641,82.0176892 97.0155378,79.983506 L103.581036,79.983506 C103.581036,84.3603187 100.02247,89.0098805 93.6711554,89.0098805 C86.6516335,89.0098805 82.66749,84.0568924 82.66749,77.6408765 C82.66749,70.8043028 86.9829482,66.2741036 93.6711554,66.2741036 C99.6286853,66.3047809 102.913386,69.4360956 103.488446,74.8765737 L96.9848606,74.8765737" id="Fill-20" fill="#FFFFFF"></path>
            <path d="M113.061434,71.9594422 L116.194422,71.9594422 C118.747888,71.9594422 119.507012,72.749243 119.507012,74.1174502 C119.507012,76.0596016 117.806375,76.2776892 116.560876,76.2776892 L113.061434,76.2776892 L113.061434,71.9594422 L113.061434,71.9594422 Z M106.374343,88.4939442 L113.061434,88.4939442 L113.061434,80.9278088 L116.621116,80.9278088 C119.26494,80.9278088 119.445657,83.0835857 119.629721,85.1506773 C119.718964,86.2756972 119.840558,87.4001594 120.176892,88.4939442 L126.8651,88.4939442 C126.254343,87.4894024 126.225339,84.9047012 126.13498,83.8427092 C125.892351,81.1403187 124.766773,79.1329084 122.941753,78.4334661 C125.160558,77.6124303 126.196335,75.2435857 126.196335,72.9935458 C126.196335,68.8883665 122.910518,66.7917131 119.113785,66.7917131 L106.374343,66.7917131 L106.374343,88.4939442 L106.374343,88.4939442 Z" id="Fill-21" fill="#FFFFFF"></path>
            <path d="M12.7862948,94.2266932 L19.7823904,94.2266932 L19.7823904,96.0678884 L14.9744223,96.0678884 L14.9744223,98.3681275 L19.1415139,98.3681275 L19.1415139,100.069323 L14.9744223,100.069323 L14.9744223,104.182869 L12.7862948,104.182869 L12.7862948,94.2266932" id="Fill-22" fill="#FFFFFF"></path>
            <path d="M20.4149004,94.2266932 L22.5885259,94.2266932 L26.7411155,100.905418 L26.7695618,100.905418 L26.7695618,94.2266932 L28.8176892,94.2266932 L28.8176892,104.182869 L26.6295618,104.182869 L22.4909163,97.5175299 L22.4635857,97.5175299 L22.4635857,104.182869 L20.4149004,104.182869 L20.4149004,94.2266932" id="Fill-23" fill="#FFFFFF"></path>
            <path d="M29.6699602,102.035458 L31.8575299,102.035458 L31.8575299,104.182869 L29.6699602,104.182869 L29.6699602,102.035458 Z M29.6699602,97.0992032 L31.8575299,97.0992032 L31.8575299,99.2460558 L29.6699602,99.2460558 L29.6699602,97.0992032 Z" id="Fill-24" fill="#FFFFFF"></path>
            <path d="M34.1934661,101.839681 C34.1934661,102.691394 34.9458964,103.052829 35.7122709,103.052829 C36.2694821,103.052829 37.0085259,102.830837 37.0085259,102.133068 C37.0085259,101.532908 36.1718725,101.310916 34.7646215,101.016414 C33.6078088,100.751474 32.4794422,100.376096 32.4794422,99.0926693 C32.4794422,97.2525896 34.0674104,96.7790438 35.6146614,96.7790438 C37.1758566,96.7790438 38.6388845,97.3083665 38.7917131,99.0787251 L36.9109163,99.0787251 C36.8551394,98.3117928 36.2694821,98.1026295 35.5588845,98.1026295 C35.1132271,98.1026295 34.4578486,98.1729084 34.4578486,98.77251 C34.4578486,99.4836653 35.5873307,99.5812749 36.701753,99.8462151 C37.858008,100.111713 38.9869323,100.529482 38.9869323,101.86757 C38.9869323,103.763984 37.329243,104.376972 35.6983267,104.376972 C34.0261355,104.376972 32.3818327,103.750598 32.3121116,101.839681 L34.1934661,101.839681" id="Fill-25" fill="#FFFFFF"></path>
            <path d="M46.5748207,94.2266932 L48.5537849,94.2266932 L48.5537849,104.182869 L46.5748207,104.182869 L46.5748207,94.2266932 Z M42.0312351,98.2978486 L40.8465339,98.2978486 L40.8465339,96.9742629 L42.0312351,96.9742629 L42.0312351,96.4142629 C42.0312351,95.1336255 42.825498,94.2266932 44.4419124,94.2266932 C44.7905179,94.2266932 45.1530677,94.2679681 45.4877291,94.2824701 L45.4877291,95.76 C45.2501195,95.7326693 44.9996813,95.7192829 44.7626295,95.7192829 C44.2193625,95.7192829 44.010757,95.9423904 44.010757,96.5414343 L44.010757,96.9742629 L45.3761753,96.9742629 L45.3761753,98.2978486 L44.010757,98.2978486 L44.010757,104.182869 L42.0312351,104.182869 L42.0312351,98.2978486 L42.0312351,98.2978486 Z" id="Fill-26" fill="#FFFFFF"></path>
            <path d="M53.5859761,105.088127 C53.1542629,106.247171 52.4570518,106.720717 51.1055777,106.720717 C50.701753,106.720717 50.2973705,106.693386 49.892988,106.650438 L49.892988,105.02008 C50.2694821,105.061355 50.6599203,105.102629 51.0498008,105.088127 C51.5657371,105.034024 51.8161753,104.629084 51.8161753,104.182869 C51.8161753,104.028924 51.7882869,103.875538 51.7330677,103.736653 L49.1963347,96.9742629 L51.3152988,96.9742629 L52.9450996,101.910518 L52.972988,101.910518 L54.5475697,96.9742629 L56.5968127,96.9742629 L53.5859761,105.088127" id="Fill-27" fill="#FFFFFF"></path>
            <path d="M57.3648606,94.2266932 L59.3432669,94.2266932 L59.3432669,99.5667729 L61.8387251,96.9742629 L64.1791235,96.9742629 L61.4622311,99.6225498 L64.4858964,104.182869 L62.0891633,104.182869 L60.1101992,100.961753 L59.3432669,101.700797 L59.3432669,104.182869 L57.3648606,104.182869 L57.3648606,94.2266932" id="Fill-28" fill="#FFFFFF"></path>
            <path d="M67.6094024,96.9742629 L69.0590438,96.9742629 L69.0590438,98.2978486 L67.6094024,98.2978486 L67.6094024,101.86757 C67.6094024,102.53745 67.7767331,102.704223 68.445498,102.704223 C68.6686056,102.704223 68.8777689,102.691394 69.0590438,102.648446 L69.0590438,104.197371 C68.7238247,104.252032 68.2921116,104.265976 67.9022311,104.265976 C66.676255,104.265976 65.630996,104.000478 65.630996,102.551952 L65.630996,98.2978486 L64.4317928,98.2978486 L64.4317928,96.9742629 L65.630996,96.9742629 L65.630996,94.8123506 L67.6094024,94.8123506 L67.6094024,96.9742629" id="Fill-29" fill="#FFFFFF"></path>
            <path d="M69.9799203,96.9742629 L71.9588845,96.9742629 L71.9588845,104.182869 L69.9799203,104.182869 L69.9799203,96.9742629 Z M69.9799203,94.2266932 L71.9588845,94.2266932 L71.9588845,95.8587251 L69.9799203,95.8587251 L69.9799203,94.2266932 Z" id="Fill-30" fill="#FFFFFF"></path>
            <path d="M73.4375299,96.9742629 L75.3183267,96.9742629 L75.3183267,97.9771315 L75.3590438,97.9771315 C75.8615936,97.1560956 76.7255777,96.7790438 77.5616733,96.7790438 C79.6666932,96.7790438 80.1954582,97.9643028 80.1954582,99.7491633 L80.1954582,104.182869 L78.2176096,104.182869 L78.2176096,100.111713 C78.2176096,98.9264542 77.8818327,98.340239 76.9486853,98.340239 C75.8760956,98.340239 75.4159363,98.9403984 75.4159363,100.404542 L75.4159363,104.182869 L73.4375299,104.182869 L73.4375299,96.9742629" id="Fill-31" fill="#FFFFFF"></path>
            <path d="M86.6633466,100.486534 C86.6633466,99.3168924 86.2595219,98.2705179 84.9772112,98.2705179 C83.8627888,98.2705179 83.3752988,99.2460558 83.3752988,100.320319 C83.3752988,101.352191 83.7512351,102.481673 84.9772112,102.481673 C86.1061355,102.481673 86.6633466,101.518964 86.6633466,100.486534 L86.6633466,100.486534 Z M88.5458167,103.723267 C88.5458167,104.90741 88.1141036,106.915936 84.810996,106.915936 C83.389243,106.915936 81.7443825,106.233227 81.6333865,104.600637 L83.5984064,104.600637 C83.7791235,105.339681 84.3647809,105.591235 85.0753785,105.591235 C86.1758566,105.591235 86.6778486,104.852191 86.6633466,103.805817 L86.6633466,102.858167 L86.6371315,102.858167 C86.2043028,103.624542 85.3542629,103.973147 84.4763347,103.973147 C82.3021514,103.973147 81.3963347,102.327171 81.3963347,100.347649 C81.3963347,98.4796813 82.4828685,96.7790438 84.4902789,96.7790438 C85.4373705,96.7790438 86.1485259,97.0992032 86.6371315,97.9358566 L86.6633466,97.9358566 L86.6633466,96.9742629 L88.5458167,96.9742629 L88.5458167,103.723267 L88.5458167,103.723267 Z" id="Fill-32" fill="#FFFFFF"></path>
            <path d="M93.5495618,102.88494 C94.9027092,102.88494 95.3054183,101.742629 95.3054183,100.585259 C95.3054183,99.4273307 94.9027092,98.2705179 93.5495618,98.2705179 C92.2125896,98.2705179 91.8082072,99.4273307 91.8082072,100.585259 C91.8082072,101.742629 92.2125896,102.88494 93.5495618,102.88494 L93.5495618,102.88494 Z M93.5495618,96.7790438 C95.8224701,96.7790438 97.2849402,98.2844622 97.2849402,100.585259 C97.2849402,102.872112 95.8224701,104.376972 93.5495618,104.376972 C91.2928287,104.376972 89.829243,102.872112 89.829243,100.585259 C89.829243,98.2844622 91.2928287,96.7790438 93.5495618,96.7790438 L93.5495618,96.7790438 Z" id="Fill-33" fill="#FFFFFF"></path>
            <path d="M98.4863745,96.9742629 L100.367729,96.9742629 L100.367729,98.3117928 L100.39506,98.3117928 C100.770996,97.4059761 101.705259,96.7790438 102.694183,96.7790438 C102.847012,96.7790438 102.98757,96.8063745 103.125896,96.8476494 L103.125896,98.6894024 C102.944622,98.6475697 102.652908,98.6191235 102.415857,98.6191235 C100.952271,98.6191235 100.465339,99.650996 100.465339,100.933307 L100.465339,104.182869 L98.4863745,104.182869 L98.4863745,96.9742629" id="Fill-34" fill="#FFFFFF"></path>
            <path d="M108.869243,100.486534 C108.869243,99.3168924 108.465418,98.2705179 107.183108,98.2705179 C106.068127,98.2705179 105.580637,99.2460558 105.580637,100.320319 C105.580637,101.352191 105.957131,102.481673 107.183108,102.481673 C108.312032,102.481673 108.869243,101.518964 108.869243,100.486534 L108.869243,100.486534 Z M110.75004,103.723267 C110.75004,104.90741 110.318327,106.915936 107.016335,106.915936 C105.594582,106.915936 103.949721,106.233227 103.839283,104.600637 L105.803187,104.600637 C105.98502,105.339681 106.57012,105.591235 107.280159,105.591235 C108.382311,105.591235 108.883187,104.852191 108.869243,103.805817 L108.869243,102.858167 L108.841912,102.858167 C108.409084,103.624542 107.559602,103.973147 106.682231,103.973147 C104.506932,103.973147 103.601673,102.327171 103.601673,100.347649 C103.601673,98.4796813 104.688765,96.7790438 106.69506,96.7790438 C107.642709,96.7790438 108.353307,97.0992032 108.841912,97.9358566 L108.869243,97.9358566 L108.869243,96.9742629 L110.75004,96.9742629 L110.75004,103.723267 L110.75004,103.723267 Z" id="Fill-35" fill="#FFFFFF"></path>
            <path d="M116.745498,100.65498 C116.411394,100.947809 115.714741,100.961753 115.100637,101.073307 C114.488207,101.184303 113.930996,101.406853 113.930996,102.133068 C113.930996,102.858167 114.502151,103.052829 115.143586,103.052829 C116.689163,103.052829 116.745498,101.839681 116.745498,101.393466 L116.745498,100.65498 L116.745498,100.65498 Z M112.174582,99.1902789 C112.285578,97.3501992 113.94494,96.7790438 115.560797,96.7790438 C116.996494,96.7790438 118.724462,97.0992032 118.724462,98.8288446 L118.724462,102.578167 C118.724462,103.234104 118.793068,103.888924 118.976016,104.182869 L116.968048,104.182869 C116.898884,103.960319 116.843108,103.723267 116.829163,103.4851 C116.202789,104.13992 115.295299,104.376972 114.403984,104.376972 C113.024064,104.376972 111.950916,103.693705 111.950916,102.216175 C111.979363,98.9403984 116.829163,100.697371 116.745498,99.0787251 C116.745498,98.2426295 116.159841,98.1026295 115.463187,98.1026295 C114.697371,98.1026295 114.223267,98.4094024 114.152988,99.1902789 L112.174582,99.1902789 L112.174582,99.1902789 Z" id="Fill-36" fill="#FFFFFF"></path>
            <path d="M120.175777,96.9742629 L122.056574,96.9742629 L122.056574,97.9771315 L122.098406,97.9771315 C122.600956,97.1560956 123.463825,96.7790438 124.301036,96.7790438 C126.40494,96.7790438 126.934821,97.9643028 126.934821,99.7491633 L126.934821,104.182869 L124.955857,104.182869 L124.955857,100.111713 C124.955857,98.9264542 124.620637,98.340239 123.68749,98.340239 C122.614343,98.340239 122.154183,98.9403984 122.154183,100.404542 L122.154183,104.182869 L120.175777,104.182869 L120.175777,96.9742629" id="Fill-37" fill="#FFFFFF"></path>
            <path d="M15.0714741,16.9578486 L15.0714741,17.9289243 C15.0714741,18.7270916 15.274502,19.1035857 15.9270916,19.1035857 C16.6666932,19.1035857 16.8117131,18.6690837 16.8117131,17.6968924 L16.8117131,11.0259761 L20.1616733,11.0259761 L20.1616733,18.0449402 C20.1616733,20.4528287 18.7259761,21.743506 16.0431076,21.743506 C13.389243,21.743506 12.0840637,20.4093227 12.0840637,17.6968924 C12.0840637,17.4648606 12.0985657,17.2188845 12.1130677,16.9578486 L15.0714741,16.9578486" id="Fill-38" fill="#D9222A"></path>
            <path d="M25.4113944,11.0259761 L25.4113944,17.4509163 C25.4113944,18.5965737 25.8174502,19.1035857 27.0211155,19.1035857 C28.2247809,19.1035857 28.6018327,18.5965737 28.6018327,17.4509163 L28.6018327,11.0259761 L31.9523506,11.0259761 L31.9523506,17.7113944 C31.9523506,20.3223108 30.2411155,21.743506 27.0211155,21.743506 C23.8016733,21.743506 22.0614343,20.3223108 22.0614343,17.7113944 L22.0614343,11.0259761 L25.4113944,11.0259761" id="Fill-39" fill="#D9222A"></path>
            <path d="M33.909004,11.0259761 L37.2595219,11.0259761 L37.2595219,18.6835857 L41.8131474,18.6835857 L41.8131474,21.4534661 L33.909004,21.4534661 L33.909004,11.0259761" id="Fill-40" fill="#D9222A"></path>
            <path d="M50.7753785,20.5543426 C50.0067729,21.3664542 48.9481275,21.743506 47.5408765,21.743506 C44.5969721,21.743506 42.7262151,19.6987251 42.7262151,16.2466932 C42.7262151,12.7662151 44.741992,10.7504382 48.1934661,10.7504382 C50.9349004,10.7504382 52.6606375,12.1861355 52.9651793,14.6224701 L49.789243,14.6224701 C49.5282072,13.7813546 48.9481275,13.3462948 48.1064542,13.3462948 C46.7722709,13.3462948 46.1051793,14.3759363 46.1051793,16.4207171 C46.1051793,18.3065339 46.7722709,19.2346614 48.1360159,19.2346614 C49.1366534,19.2346614 49.861753,18.7270916 50.0212749,17.972988 L48.5130677,17.972988 L48.5130677,15.7391235 L53.0956972,15.7391235 L53.0956972,21.4534661 L50.9349004,21.4534661 L50.7753785,20.5543426" id="Fill-41" fill="#D9222A"></path>
            <path d="M59.330996,9.9238247 C59.7225498,9.9238247 60.0270916,9.60478088 60.0270916,9.22772908 C60.0270916,8.85067729 59.7080478,8.53163347 59.330996,8.53163347 C58.9539442,8.53163347 58.6203984,8.8361753 58.6203984,9.22772908 C58.6203984,9.60478088 58.9394422,9.9238247 59.330996,9.9238247 L59.330996,9.9238247 Z M60.3751394,17.8859761 L59.330996,14.2744223 L58.2723506,17.8859761 L60.3751394,17.8859761 L60.3751394,17.8859761 Z M59.316494,7.48749004 C60.2881275,7.48749004 61.0712351,8.27059761 61.0712351,9.24223108 C61.0712351,10.2138645 60.2881275,10.9679681 59.316494,10.9679681 C58.3448606,10.9679681 57.576255,10.2138645 57.576255,9.24223108 C57.576255,8.27059761 58.3448606,7.48749004 59.316494,7.48749004 L59.316494,7.48749004 Z M57.532749,11.3160159 L61.114741,11.3160159 L64.6967331,21.4534661 L61.3757769,21.4534661 L60.9842231,20.0757769 L57.6632669,20.0757769 L57.2572112,21.4534661 L53.9647012,21.4534661 L57.532749,11.3160159 L57.532749,11.3160159 Z" id="Fill-42" fill="#D9222A"></path>
            <path d="M67.9513147,11.0259761 L69.7066135,17.7549004 L71.5918725,11.0259761 L74.8838247,11.0259761 L71.3743426,21.4534661 L68.0383267,21.4534661 L64.5288446,11.0259761 L67.9513147,11.0259761" id="Fill-43" fill="#D9222A"></path>
            <path d="M81.1258167,17.8859761 L80.0816733,14.2744223 L79.0230279,17.8859761 L81.1258167,17.8859761 L81.1258167,17.8859761 Z M78.3849402,11.0259761 L81.7789641,11.0259761 L85.4479681,21.4534661 L82.1264542,21.4534661 L81.7349004,20.0757769 L78.4133865,20.0757769 L78.0078884,21.4534661 L74.7159363,21.4534661 L78.3849402,11.0259761 L78.3849402,11.0259761 Z" id="Fill-44" fill="#D9222A"></path>
            <path d="M90.5660558,21.2069323 C90.5660558,19.6836653 91.5086853,18.4660558 93.3794422,17.1463745 C94.9746614,16.0146614 96.1203187,15.6231076 96.1203187,14.5789641 C96.1203187,13.7668526 95.656255,13.2882869 94.8876494,13.2882869 C93.9305179,13.2882869 93.4664542,13.8973705 93.4664542,15.1300398 L93.4664542,15.3040637 L90.7690837,15.3040637 C90.7690837,15.2025498 90.7540239,15.1015936 90.7540239,15.0140239 C90.7540239,12.5051793 92.3788048,10.9969721 95.0471713,10.9969721 C97.5415139,10.9969721 99.0787251,12.3456574 99.0787251,14.2889243 C99.0787251,15.8406375 98.3391235,16.4937849 96.9179283,17.3633466 C96.2073307,17.7989641 95.3517131,18.2340239 94.4960956,18.9591235 L99.0497211,18.9591235 L99.0497211,21.4534661 L90.5805578,21.4534661 C90.5805578,21.3664542 90.5660558,21.2939442 90.5660558,21.2069323" id="Fill-45" fill="#D9222A"></path>
            <path d="M104.473466,13.3462948 C103.385817,13.3462948 103.081275,14.3034263 103.081275,16.3627092 C103.081275,18.4225498 103.385817,19.3651793 104.473466,19.3651793 C105.546614,19.3651793 105.865657,18.4225498 105.865657,16.3627092 C105.865657,14.3034263 105.546614,13.3462948 104.473466,13.3462948 L104.473466,13.3462948 Z M104.473466,10.9969721 C107.402869,10.9969721 108.954582,12.8242231 108.954582,16.3627092 C108.954582,19.901753 107.402869,21.743506 104.473466,21.743506 C101.558566,21.743506 100.021355,19.887251 100.021355,16.3627092 C100.021355,12.8242231 101.558566,10.9969721 104.473466,10.9969721 L104.473466,10.9969721 Z" id="Fill-46" fill="#D9222A"></path>
            <path d="M113.000637,15.5360956 L110.709323,15.5360956 L110.709323,13.4188048 C112.565578,13.3898008 113.421195,12.8242231 113.667729,11.287012 L115.973546,11.287012 L115.973546,21.4534661 L113.000637,21.4534661 L113.000637,15.5360956" id="Fill-47" fill="#D9222A"></path>
            <path d="M122.020876,18.4660558 C122.252908,19.0896414 122.716972,19.3941833 123.384064,19.3941833 C124.268685,19.3941833 124.805259,18.8715538 124.805259,18.030996 C124.805259,17.1608765 124.254183,16.594741 123.456574,16.594741 C122.963506,16.594741 122.55745,16.7983267 122.26741,17.1608765 L119.49753,16.9288446 L120.498167,11.287012 L126.966056,11.287012 L126.966056,13.7378486 L122.55745,13.7378486 L122.26741,15.1880478 C122.876494,14.84 123.544143,14.7094821 124.356255,14.7094821 C126.385976,14.7094821 127.778167,15.9862151 127.778167,17.9584861 C127.778167,20.3078088 126.169004,21.743506 123.355618,21.743506 C121.020239,21.743506 119.483028,20.6268526 119.076972,18.7555378 L122.020876,18.4660558" id="Fill-48" fill="#D9222A"></path>
        </g>
    </g>
</svg>