<?xml version="1.0" encoding="UTF-8" standalone="no"?>
<svg width="241px" height="178px" viewBox="0 0 241 178" version="1.1" xmlns="http://www.w3.org/2000/svg" xmlns:xlink="http://www.w3.org/1999/xlink">
    <defs>
        <linearGradient x1="50%" y1="0%" x2="50%" y2="100%" id="linearGradient-1">
            <stop stop-color="#F77916" offset="0%"></stop>
            <stop stop-color="#BA5506" offset="100%"></stop>
        </linearGradient>
    </defs>
    <g id="Page-1" stroke="none" stroke-width="1" fill="none" fill-rule="evenodd">
        <path d="M62.658846,76.3717156 C67.6612146,76.3717156 71.2993008,74.4389823 71.412991,73.643151 L77.6659517,44.1973907 C79.4849948,35.7843163 76.9838105,32.1462301 69.8213283,32.1462301 L49.4707835,32.1462301 C44.1273444,32.1462301 42.1946111,33.1694418 40.4892582,34.8747947 C37.8743837,37.4896692 36.9648622,42.7194181 36.9648622,44.7658416 C36.9648622,48.9723788 40.2618778,52.0420141 46.4011483,52.0420141 L50.6076855,52.0420141 C49.5844737,53.4062964 48.2201914,54.5431983 46.7422189,55.3390297 C45.0368659,56.2485513 42.9904424,56.8170022 40.7166386,56.8170022 C32.9857054,56.8170022 28.3244074,50.7914219 28.5517878,43.0604887 C28.5517878,32.0325399 36.6237916,24.1879165 45.7190071,24.1879165 C51.6308972,24.1879165 55.9511246,27.1438615 58.9070696,30.6682576 C59.702901,31.5777791 75.9605988,31.6914693 75.9605988,18.9581675 C75.9605988,15.3200813 74.4826262,12.0230657 71.6403714,9.18081084 C66.5243126,4.0647521 57.0880265,0.540356083 44.8094856,0.540356083 C18.6607409,0.540356083 0.584,21.1182812 0.584,44.993222 C0.584,64.7753158 11.8393292,77.2812372 28.7791682,77.2812372 C38.4428347,77.2812372 45.8326973,73.643151 50.3803051,67.0491197 C51.2898266,73.643151 56.0648148,76.3717156 62.658846,76.3717156 L62.658846,76.3717156 Z M119.390253,77.2812372 C148.040182,77.2812372 161.910386,55.2253395 161.910386,33.851583 C161.910386,16.4569833 150.768747,0.540356083 126.211665,0.540356083 C97.5617357,0.540356083 83.691532,22.5962538 83.691532,43.9700103 C83.691532,61.36461 94.833171,77.2812372 119.390253,77.2812372 L119.390253,77.2812372 Z M120.754535,52.8378454 C114.728955,52.8378454 111.090869,48.2902377 111.090869,42.1509672 C111.090869,33.0557516 116.434308,24.9837478 124.847382,24.9837478 C130.872963,24.9837478 134.511049,29.5313556 134.511049,35.6706261 C134.511049,44.7658416 129.16761,52.8378454 120.754535,52.8378454 L120.754535,52.8378454 Z M177.258562,75.8032647 L194.653162,75.8032647 C225.804275,75.8032647 240.584,55.1116493 240.584,32.9420614 C240.584,14.9790107 227.623318,2.245709 205.794801,2.245709 L189.537103,2.245709 C180.669268,2.245709 174.871068,6.1111756 172.824644,15.7748421 L163.729429,58.2949747 C161.114554,70.4598255 166.230613,75.8032647 177.258562,75.8032647 L177.258562,75.8032647 Z M192.493048,52.4967748 L198.177558,25.5521988 L203.066236,25.5521988 C209.319197,25.5521988 213.298353,29.5313556 213.298353,36.1253869 C213.298353,44.6521514 207.727534,52.4967748 198.291248,52.4967748 L192.493048,52.4967748 Z M36.6008116,177.023217 C57.9745681,177.023217 68.7751366,166.108958 72.7542934,147.122696 L79.6893952,114.26623 C81.5084384,105.853155 77.0745208,101.419238 69.4572778,101.419238 L65.478121,101.419238 C57.6334976,101.419238 53.768031,105.625775 51.8352977,114.26623 L45.9234076,142.120327 C44.2180546,150.192331 41.0347292,153.489347 35.0091489,153.489347 C29.7794,153.489347 26.0276236,150.874472 23.1853687,146.667935 C22.8442981,146.099484 11.5889689,148.600668 11.5889689,161.22028 C11.5889689,164.744676 12.9532512,167.814311 15.5681257,170.429186 C19.6609727,174.522033 26.7097647,177.023217 36.6008116,177.023217 L36.6008116,177.023217 Z M111.317143,177.023217 C131.895068,177.023217 145.08313,166.791099 149.858119,144.621512 L156.33846,114.26623 C158.157503,105.853155 153.723585,101.419238 146.106342,101.419238 L142.468256,101.419238 C134.623632,101.419238 130.644476,105.625775 128.825433,114.26623 L122.572472,143.48461 C121.094499,150.533402 118.252245,152.920896 114.386778,152.920896 C108.020127,152.920896 106.314774,148.828049 107.792747,141.892947 L113.704637,114.37992 C115.52368,105.739465 111.203452,101.419238 103.586209,101.419238 L99.3796723,101.419238 C91.5350489,101.419238 87.5558921,105.398395 85.736849,114.038849 L80.1660295,139.846523 C74.9362805,164.062535 85.168398,177.023217 111.317143,177.023217 L111.317143,177.023217 Z M166.409553,175.545244 L195.627933,175.545244 C202.108274,175.545244 204.495768,174.408342 206.542192,172.361919 C209.725517,169.178593 210.862419,162.811943 210.862419,160.310758 C210.862419,155.1947 206.769572,151.556613 199.266019,151.556613 L182.21249,151.556613 L190.284494,114.26623 C192.103537,105.625775 187.66962,101.419238 180.052377,101.419238 L175.95953,101.419238 C168.114906,101.419238 164.24944,105.398395 162.316706,114.038849 L152.88042,158.036954 C150.265546,170.201805 155.381605,175.545244 166.409553,175.545244 L166.409553,175.545244 Z" id="GOD-JUL-two-lines" stroke="url(#linearGradient-1)" stroke-width="1.5"></path>
    </g>
</svg>