<?xml version="1.0" encoding="UTF-8" standalone="no"?>
<svg width="394px" height="290px" viewBox="0 0 394 290" version="1.1" xmlns="http://www.w3.org/2000/svg" xmlns:xlink="http://www.w3.org/1999/xlink">
    <defs>
        <linearGradient x1="50%" y1="0%" x2="50%" y2="100%" id="linearGradient-1">
            <stop stop-color="#F77916" offset="0%"></stop>
            <stop stop-color="#BA5506" offset="100%"></stop>
        </linearGradient>
    </defs>
    <g id="Page-1" stroke="none" stroke-width="1" fill="none" fill-rule="evenodd">
        <path d="M102.115157,124.572008 C110.297155,124.572008 116.247699,121.410781 116.433654,120.1091 L126.661151,71.9468843 C129.636423,58.1862512 125.545424,52.2357072 113.830291,52.2357072 L80.5444352,52.2357072 C71.8045737,52.2357072 68.6433472,53.9092977 65.8540297,56.6986152 C61.5770762,60.9755687 60.0894402,69.5294758 60.0894402,72.8766568 C60.0894402,79.7569733 65.4821207,84.7777448 75.5236637,84.7777448 L82.4039802,84.7777448 C80.7303897,87.0091988 78.4989357,88.8687438 76.0815272,90.1704253 C73.2922097,91.6580613 69.9450287,92.5878338 66.2259387,92.5878338 C53.5810326,92.5878338 45.9568981,82.7322453 46.3288071,70.0873393 C46.3288071,52.0497527 59.5315767,39.2188922 74.4079367,39.2188922 C84.0775707,39.2188922 91.1438417,44.0537092 95.9786588,49.8182987 C97.2803403,51.3059347 123.871834,51.4918892 123.871834,30.6649852 C123.871834,24.7144411 121.454425,19.3217606 116.805563,14.6728981 C108.43761,6.3049456 93.0033867,0.540356083 72.9203007,0.540356083 C30.1507656,0.540356083 0.584,34.1981207 0.584,73.2485658 C0.584,105.604649 18.9934955,126.059644 46.7007161,126.059644 C62.5068487,126.059644 74.5938912,120.1091 82.0320712,109.323739 C83.5197072,120.1091 91.3297962,124.572008 102.115157,124.572008 L102.115157,124.572008 Z M194.906453,126.059644 C241.766987,126.059644 264.453436,89.9844708 264.453436,55.0250247 C264.453436,26.5739862 246.229895,0.540356083 206.063723,0.540356083 C159.203189,0.540356083 136.51674,36.6155292 136.51674,71.5749753 C136.51674,100.026014 154.740281,126.059644 194.906453,126.059644 L194.906453,126.059644 Z M197.137907,86.0794263 C187.282318,86.0794263 181.331774,78.6412463 181.331774,68.5997033 C181.331774,53.7233432 190.071636,40.5205737 203.832269,40.5205737 C213.687858,40.5205737 219.638402,47.9587537 219.638402,58.0002967 C219.638402,72.8766568 210.89854,86.0794263 197.137907,86.0794263 L197.137907,86.0794263 Z M289.557294,123.642235 L318.008332,123.642235 C368.959865,123.642235 393.133951,89.7985163 393.133951,53.5373887 C393.133951,24.1565776 371.935137,3.32967359 336.231873,3.32967359 L309.64038,3.32967359 C295.135929,3.32967359 285.652249,9.65212661 282.305068,25.4582591 L267.428708,95.0052423 C263.151755,114.902374 271.519707,123.642235 289.557294,123.642235 L289.557294,123.642235 Z M314.475197,85.5215628 L323.772922,41.4503462 L331.768965,41.4503462 C341.996463,41.4503462 348.50487,47.9587537 348.50487,58.7441147 C348.50487,72.6907023 339.3931,85.5215628 323.958876,85.5215628 L314.475197,85.5215628 Z M59.4939901,289.200099 C94.4534362,289.200099 112.119114,271.348467 118.627521,240.294065 L129.970746,186.553215 C132.946018,172.792582 125.693792,165.540356 113.234841,165.540356 L106.726433,165.540356 C93.8955727,165.540356 87.5731197,172.420673 84.4118932,186.553215 L74.7422591,232.112067 C71.9529416,245.314837 66.7462156,250.707517 56.8906271,250.707517 C48.3367201,250.707517 42.2002216,246.430564 37.5513591,239.550247 C36.9934955,238.620475 18.584,242.711474 18.584,263.352423 C18.584,269.117013 20.815454,274.137784 25.0924075,278.414738 C31.7867695,285.1091 43.3159486,289.200099 59.4939901,289.200099 L59.4939901,289.200099 Z M181.701874,289.200099 C215.359638,289.200099 236.93036,272.464194 244.740449,236.203066 L255.339856,186.553215 C258.315128,172.792582 251.062902,165.540356 238.603951,165.540356 L232.653407,165.540356 C219.822546,165.540356 213.314139,172.420673 210.338867,186.553215 L200.111369,234.343521 C197.693961,245.8727 193.045098,249.777745 186.722645,249.777745 C176.309193,249.777745 173.519876,243.083383 175.937284,231.740158 L185.606918,186.739169 C188.58219,172.606627 181.515919,165.540356 169.056968,165.540356 L162.176651,165.540356 C149.345791,165.540356 142.837383,172.048764 139.862111,186.181306 L130.750341,228.392977 C122.196434,268.001286 138.932339,289.200099 181.701874,289.200099 L181.701874,289.200099 Z M271.812387,286.78269 L319.602693,286.78269 C330.2021,286.78269 334.107144,284.923145 337.454325,281.575964 C342.661051,276.369238 344.520596,265.955786 344.520596,261.864787 C344.520596,253.496835 337.826234,247.546291 325.553237,247.546291 L297.660062,247.546291 L310.862832,186.553215 C313.838104,172.420673 306.585878,165.540356 294.126927,165.540356 L287.432565,165.540356 C274.601704,165.540356 268.279251,172.048764 265.118025,186.181306 L249.683801,258.145697 C245.406847,278.042829 253.7748,286.78269 271.812387,286.78269 L271.812387,286.78269 Z" id="GOD-JUL-two-lines" stroke="url(#linearGradient-1)" stroke-width="2"></path>
    </g>
</svg>