<?xml version="1.0" encoding="UTF-8" standalone="no"?>
<svg width="749px" height="127px" viewBox="0 0 749 127" version="1.1" xmlns="http://www.w3.org/2000/svg" xmlns:xlink="http://www.w3.org/1999/xlink">
    <defs>
        <linearGradient x1="50%" y1="0%" x2="50%" y2="100%" id="linearGradient-1">
            <stop stop-color="#F77916" offset="0%"></stop>
            <stop stop-color="#BA5506" offset="100%"></stop>
        </linearGradient>
    </defs>
    <g id="Page-1" stroke="none" stroke-width="1" fill="none" fill-rule="evenodd">
        <path d="M102.115157,124.572008 C110.297155,124.572008 116.247699,121.410781 116.433654,120.1091 L126.661151,71.9468843 C129.636423,58.1862512 125.545424,52.2357072 113.830291,52.2357072 L80.5444352,52.2357072 C71.8045737,52.2357072 68.6433472,53.9092977 65.8540297,56.6986152 C61.5770762,60.9755687 60.0894402,69.5294758 60.0894402,72.8766568 C60.0894402,79.7569733 65.4821207,84.7777448 75.5236637,84.7777448 L82.4039802,84.7777448 C80.7303897,87.0091988 78.4989357,88.8687438 76.0815272,90.1704253 C73.2922097,91.6580613 69.9450287,92.5878338 66.2259387,92.5878338 C53.5810326,92.5878338 45.9568981,82.7322453 46.3288071,70.0873393 C46.3288071,52.0497527 59.5315767,39.2188922 74.4079367,39.2188922 C84.0775707,39.2188922 91.1438417,44.0537092 95.9786588,49.8182987 C97.2803403,51.3059347 123.871834,51.4918892 123.871834,30.6649852 C123.871834,24.7144411 121.454425,19.3217606 116.805563,14.6728981 C108.43761,6.3049456 93.0033867,0.540356083 72.9203007,0.540356083 C30.1507656,0.540356083 0.584,34.1981207 0.584,73.2485658 C0.584,105.604649 18.9934955,126.059644 46.7007161,126.059644 C62.5068487,126.059644 74.5938912,120.1091 82.0320712,109.323739 C83.5197072,120.1091 91.3297962,124.572008 102.115157,124.572008 L102.115157,124.572008 Z M194.906453,126.059644 C241.766987,126.059644 264.453436,89.9844708 264.453436,55.0250247 C264.453436,26.5739862 246.229895,0.540356083 206.063723,0.540356083 C159.203189,0.540356083 136.51674,36.6155292 136.51674,71.5749753 C136.51674,100.026014 154.740281,126.059644 194.906453,126.059644 L194.906453,126.059644 Z M197.137907,86.0794263 C187.282318,86.0794263 181.331774,78.6412463 181.331774,68.5997033 C181.331774,53.7233432 190.071636,40.5205737 203.832269,40.5205737 C213.687858,40.5205737 219.638402,47.9587537 219.638402,58.0002967 C219.638402,72.8766568 210.89854,86.0794263 197.137907,86.0794263 L197.137907,86.0794263 Z M289.557294,123.642235 L318.008332,123.642235 C368.959865,123.642235 393.133951,89.7985163 393.133951,53.5373887 C393.133951,24.1565776 371.935137,3.32967359 336.231873,3.32967359 L309.64038,3.32967359 C295.135929,3.32967359 285.652249,9.65212661 282.305068,25.4582591 L267.428708,95.0052423 C263.151755,114.902374 271.519707,123.642235 289.557294,123.642235 L289.557294,123.642235 Z M314.475197,85.5215628 L323.772922,41.4503462 L331.768965,41.4503462 C341.996463,41.4503462 348.50487,47.9587537 348.50487,58.7441147 C348.50487,72.6907023 339.3931,85.5215628 323.958876,85.5215628 L314.475197,85.5215628 Z M463.610706,126.059644 C498.570152,126.059644 516.23583,108.208012 522.744237,77.1536103 L534.087462,23.4127596 C537.062734,9.65212661 529.810508,2.39990109 517.351557,2.39990109 L510.843149,2.39990109 C498.012289,2.39990109 491.689836,9.28021761 488.528609,23.4127596 L478.858975,68.9716123 C476.069658,82.1743818 470.862932,87.5670623 461.007343,87.5670623 C452.453436,87.5670623 446.316938,83.2901088 441.668075,76.4097923 C441.110212,75.4800198 422.700716,79.5710188 422.700716,100.211968 C422.700716,105.976558 424.93217,110.997329 429.209124,115.274283 C435.903486,121.968645 447.432665,126.059644 463.610706,126.059644 L463.610706,126.059644 Z M585.270449,126.059644 C618.928214,126.059644 640.498936,109.323739 648.309025,73.0626113 L658.908431,23.4127596 C661.883703,9.65212661 654.631478,2.39990109 642.172526,2.39990109 L636.221982,2.39990109 C623.391122,2.39990109 616.882714,9.28021761 613.907442,23.4127596 L603.679945,71.2030663 C601.262536,82.7322453 596.613674,86.6372898 590.291221,86.6372898 C579.877769,86.6372898 577.088451,79.9429278 579.50586,68.5997033 L589.175494,23.5987141 C592.150766,9.46617211 585.084495,2.39990109 572.625543,2.39990109 L565.745227,2.39990109 C552.914366,2.39990109 546.405958,8.90830861 543.430686,23.0408506 L534.318916,65.2525223 C525.765009,104.860831 542.500914,126.059644 585.270449,126.059644 L585.270449,126.059644 Z M675.87579,123.642235 L723.666097,123.642235 C734.265503,123.642235 738.170548,121.78269 741.517729,118.435509 C746.724455,113.228783 748.584,102.815331 748.584,98.7243323 C748.584,90.3563798 741.889638,84.4058358 729.616641,84.4058358 L701.723466,84.4058358 L714.926235,23.4127596 C717.901507,9.28021761 710.649282,2.39990109 698.19033,2.39990109 L691.495968,2.39990109 C678.665108,2.39990109 672.342655,8.90830861 669.181428,23.0408506 L653.747205,95.0052423 C649.470251,114.902374 657.838204,123.642235 675.87579,123.642235 L675.87579,123.642235 Z" id="GOD-JUL" stroke="url(#linearGradient-1)" stroke-width="2"></path>
    </g>
</svg>