<?xml version="1.0" encoding="UTF-8" standalone="no"?>
<svg width="250px" height="72px" viewBox="0 0 250 72" version="1.1" xmlns="http://www.w3.org/2000/svg" xmlns:xlink="http://www.w3.org/1999/xlink" xmlns:sketch="http://www.bohemiancoding.com/sketch/ns">
    <!-- Generator: Sketch 3.0.1 (7597) - http://www.bohemiancoding.com/sketch -->
    <title>Imported Layers</title>
    <description>Created with Sketch.</description>
    <defs></defs>
    <g id="Page-1" stroke="none" stroke-width="1" fill="none" fill-rule="evenodd" sketch:type="MSPage">
        <g id="Imported-Layers" sketch:type="MSLayerGroup" transform="translate(0.000000, 1.000000)">
            <path d="M0.473,11.875 L17.322,11.875 C27.115,11.875 35.036,14.323 35.036,23.54 C35.036,27.572 32.731,32.18 27.259,33.621 L27.259,33.909 C33.883,35.205 37.196,38.661 37.196,44.854 C37.196,54.503 28.843,58.679 18.762,58.679 L0.473,58.679 L0.473,11.875 L0.473,11.875 Z M17.034,30.308 C21.066,30.308 22.938,28.292 22.938,25.412 C22.938,22.532 21.066,21.38 17.034,21.38 L12.857,21.38 L12.857,30.308 L17.034,30.308 L17.034,30.308 Z M17.898,49.174 C22.794,49.174 25.099,47.302 25.099,43.845 C25.099,40.389 22.794,38.949 17.898,38.949 L12.857,38.949 L12.857,49.174 L17.898,49.174 L17.898,49.174 Z" id="Fill-1" fill="#333333" sketch:type="MSShapeGroup"></path>
            <path d="M44.537,11.875 L56.921,11.875 L56.921,48.31 L74.635,48.31 L74.635,58.679 L44.537,58.679 L44.537,11.875" id="Fill-2" fill="#333333" sketch:type="MSShapeGroup"></path>
            <path d="M186.673,11.011 C193.298,11.011 198.338,13.891 201.65,17.203 L194.882,24.836 C192.577,22.82 190.561,21.667 186.817,21.667 C180.48,21.667 175.728,26.708 175.728,35.205 C175.728,43.989 179.616,48.886 187.969,48.886 C189.266,48.886 190.705,48.598 191.569,48.022 L191.569,41.541 L184.657,41.541 L184.657,31.46 L202.515,31.46 L202.515,53.782 C199.058,56.663 193.01,59.543 186.385,59.543 C173.568,59.543 163.055,51.622 163.055,35.637 C163.055,19.939 173.856,11.011 186.673,11.011" id="Fill-3" fill="#333333" sketch:type="MSShapeGroup"></path>
            <path d="M233.185,11.011 C239.81,11.011 244.85,13.891 248.162,17.203 L241.394,24.836 C239.089,22.82 237.073,21.667 233.329,21.667 C226.992,21.667 222.24,26.708 222.24,35.205 C222.24,43.989 226.128,48.886 234.481,48.886 C235.777,48.886 237.217,48.598 238.081,48.022 L238.081,41.541 L231.169,41.541 L231.169,31.46 L249.026,31.46 L249.026,53.782 C245.569,56.663 239.521,59.543 232.896,59.543 C220.08,59.543 209.566,51.622 209.566,35.637 C209.566,19.939 220.367,11.011 233.185,11.011" id="Fill-4" fill="#333333" sketch:type="MSShapeGroup"></path>
            <path d="M118.661,-0.034 C99.159,-0.034 83.35,15.775 83.35,35.277 C83.35,54.778 99.159,70.588 118.661,70.588 C138.163,70.588 153.972,54.778 153.972,35.277 C153.972,15.775 138.163,-0.034 118.661,-0.034 L118.661,-0.034 Z M109.252,48.925 C107.365,48.928 105.836,47.398 105.836,45.514 C105.833,43.63 107.363,42.1 109.252,42.1 C111.134,42.097 112.664,43.625 112.661,45.514 C112.664,47.4 111.134,48.928 109.252,48.925 L109.252,48.925 Z M119.486,48.927 C117.602,48.927 116.073,47.398 116.073,45.514 C116.073,41.75 113.011,38.689 109.249,38.689 C107.365,38.689 105.836,37.161 105.836,35.277 C105.836,33.393 107.365,31.864 109.249,31.864 C116.775,31.864 122.898,37.988 122.898,45.514 C122.898,47.398 121.37,48.927 119.486,48.927 L119.486,48.927 Z M129.723,48.927 C127.839,48.927 126.311,47.398 126.311,45.514 C126.311,36.106 118.657,28.452 109.249,28.452 C107.365,28.452 105.836,26.923 105.836,25.04 C105.836,23.156 107.365,21.627 109.249,21.627 C122.421,21.627 133.136,32.342 133.136,45.514 C133.136,47.398 131.607,48.927 129.723,48.927 L129.723,48.927 Z" id="Fill-5" fill="#F87916" sketch:type="MSShapeGroup"></path>
        </g>
    </g>
</svg>