<?xml version="1.0" encoding="UTF-8" standalone="no"?>
<svg width="20px" height="20px" viewBox="0 0 20 20" version="1.1" xmlns="http://www.w3.org/2000/svg" xmlns:xlink="http://www.w3.org/1999/xlink">
    <defs></defs>
    <g id="Page-1" stroke="none" stroke-width="1" fill="none" fill-rule="evenodd">
        <g id="icon-cc" fill="#000000">
            <path d="M8.4,10.4 L9.5,11 C9.3,11.4 8.9,11.8 8.5,12.1 C8.1,12.4 7.6,12.5 7.1,12.5 C6.3,12.5 5.6,12.3 5.1,11.7 C4.6,11.2 4.4,10.5 4.4,9.6 C4.4,8.7 4.7,8 5.2,7.5 C5.6,7 6.3,6.7 7.1,6.7 C8.2,6.7 9.1,7.1 9.5,8 L8.3,8.7 C8.1,8.4 8,8.2 7.8,8.1 C7.6,8 7.4,8 7.3,8 C6.5,8 6.1,8.5 6.1,9.6 C6.1,10.1 6.2,10.5 6.4,10.8 C6.6,11.1 6.9,11.2 7.3,11.2 C7.8,11.2 8.2,11 8.4,10.4 L8.4,10.4 Z M12.6,11.2 C12.2,11.2 11.9,11.1 11.7,10.8 C11.5,10.5 11.4,10.1 11.4,9.6 C11.4,8.5 11.8,8 12.6,8 C12.8,8 13,8.1 13.1,8.2 C13.3,8.3 13.5,8.5 13.6,8.8 L14.8,8.2 C14.3,7.3 13.5,6.9 12.4,6.9 C11.6,6.9 11,7.2 10.5,7.7 C10,8.2 9.7,8.9 9.7,9.8 C9.7,10.7 9.9,11.4 10.4,11.9 C10.9,12.4 11.6,12.7 12.4,12.7 C12.9,12.7 13.4,12.6 13.8,12.3 C14.2,12 14.6,11.7 14.8,11.2 L13.6,10.6 C13.5,11 13.1,11.2 12.6,11.2 L12.6,11.2 Z M19.2,9.6 C19.2,12.3 18.3,14.5 16.5,16.3 C14.6,18.2 12.3,19.2 9.6,19.2 C7,19.2 4.7,18.3 2.8,16.4 C0.9,14.5 0,12.3 0,9.6 C0,7 0.9,4.7 2.8,2.8 C4.7,0.9 6.9,0 9.6,0 C12.3,0 14.6,0.9 16.4,2.8 C18.3,4.6 19.2,6.9 19.2,9.6 L19.2,9.6 Z M17.5,9.6 C17.5,7.4 16.7,5.6 15.2,4 C13.6,2.5 11.8,1.7 9.6,1.7 C7.4,1.7 5.6,2.5 4.1,4 C2.5,5.6 1.7,7.5 1.7,9.6 C1.7,11.7 2.5,13.6 4,15.1 C5.6,16.7 7.4,17.4 9.6,17.4 C11.7,17.4 13.6,16.6 15.2,15 C16.7,13.6 17.5,11.8 17.5,9.6 L17.5,9.6 Z" id="Shape"></path>
        </g>
    </g>
</svg>