<?xml version="1.0" encoding="UTF-8" standalone="no"?>
<svg width="18px" height="16px" viewBox="0 0 18 16" version="1.1" xmlns="http://www.w3.org/2000/svg" xmlns:xlink="http://www.w3.org/1999/xlink">
    <defs></defs>
    <g id="Page-1" stroke="none" stroke-width="1" fill="none" fill-rule="evenodd">
        <g id="icon-github" fill="#000000">
            <path d="M12.1108696,8.91097826 C11.4084783,8.91097826 10.8391304,9.70043478 10.8391304,10.6708696 C10.8391304,11.6432609 11.4084783,12.4327174 12.1108696,12.4327174 C12.8132609,12.4327174 13.3826087,11.6432609 13.3826087,10.6708696 C13.3816304,9.70043478 12.8132609,8.91097826 12.1108696,8.91097826 L12.1108696,8.91097826 Z M16.5384783,4.32978261 C16.6842391,3.97271739 16.6901087,1.94380435 15.9172826,-8.8817842e-16 C15.9172826,-8.8817842e-16 14.1456522,0.194673913 11.4652174,2.03478261 C10.9027174,1.87826087 9.95086957,1.80195652 9.00097826,1.80195652 C8.04913043,1.80195652 7.09826087,1.87826087 6.53576087,2.03478261 C3.85434783,0.194673913 2.08271739,-8.8817842e-16 2.08271739,-8.8817842e-16 C1.31086957,1.94380435 1.31869565,3.97271739 1.4625,4.32978261 C0.554673913,5.31586957 0,6.50054348 0,8.11663043 C0,15.146413 5.83336957,15.258913 7.30467391,15.258913 C7.63923913,15.258913 8.30054348,15.2608696 9.00097826,15.2608696 C9.70043478,15.2608696 10.3627174,15.258913 10.6953261,15.258913 C12.168587,15.258913 18,15.146413 18,8.11663043 C18,6.50054348 17.4463043,5.31586957 16.5384783,4.32978261 L16.5384783,4.32978261 Z M9.0273913,14.3951087 L8.9726087,14.3951087 C5.28358696,14.3951087 2.40945652,13.9558696 2.40945652,10.3695652 C2.40945652,9.50967391 2.71271739,8.71336957 3.43369565,8.05206522 C4.63402174,6.94956522 6.66684783,7.5326087 8.9726087,7.5326087 L9.00097826,7.5326087 L9.0273913,7.5326087 C11.3331522,7.5326087 13.3669565,6.94956522 14.5682609,8.05206522 C15.2872826,8.71336957 15.5905435,9.50967391 15.5905435,10.3695652 C15.5905435,13.9558696 12.7173913,14.3951087 9.0273913,14.3951087 L9.0273913,14.3951087 Z M5.8901087,8.91097826 C5.18771739,8.91097826 4.61836957,9.70043478 4.61836957,10.6708696 C4.61836957,11.6432609 5.18771739,12.4327174 5.8901087,12.4327174 C6.59347826,12.4327174 7.16282609,11.6432609 7.16282609,10.6708696 C7.16282609,9.70043478 6.59347826,8.91097826 5.8901087,8.91097826 L5.8901087,8.91097826 Z" id="Shape"></path>
        </g>
    </g>
</svg>