<?xml version="1.0" encoding="UTF-8" standalone="no"?>
<svg width="12px" height="19px" viewBox="0 0 12 19" version="1.1" xmlns="http://www.w3.org/2000/svg" xmlns:xlink="http://www.w3.org/1999/xlink">
    <defs></defs>
    <g id="Page-1" stroke="none" stroke-width="1" fill="none" fill-rule="evenodd">
        <g id="icon-tumblr" fill="#000000">
            <path d="M11.2,17.396 C10.423,17.767 9.72,18.027 9.091,18.177 C8.461,18.325 7.78,18.4 7.048,18.4 C6.217,18.4 5.482,18.293 4.843,18.082 C4.204,17.869 3.66,17.566 3.208,17.174 C2.757,16.779 2.444,16.362 2.27,15.92 C2.096,15.477 2.009,14.834 2.009,13.994 L2.009,7.539 L-8.8817842e-16,7.539 L-8.8817842e-16,4.935 C0.714,4.701 1.326,4.365 1.835,3.925 C2.345,3.487 2.753,2.96 3.062,2.345 C3.37,1.732 3.581,0.949 3.698,0 L6.283,0 L6.283,4.652 L10.597,4.652 L10.597,7.539 L6.283,7.539 L6.283,12.258 C6.283,13.324 6.339,14.01 6.451,14.313 C6.562,14.616 6.77,14.858 7.073,15.038 C7.476,15.282 7.936,15.405 8.454,15.405 C9.374,15.405 10.29,15.102 11.2,14.497 L11.2,17.396 L11.2,17.396 Z" id="Shape"></path>
        </g>
    </g>
</svg>