<?xml version="1.0" standalone="no"?><!DOCTYPE svg PUBLIC "-//W3C//DTD SVG 1.1//EN" "http://www.w3.org/Graphics/SVG/1.1/DTD/svg11.dtd"><svg width="100%" height="100%" viewBox="0 0 13 20" version="1.1" xmlns="http://www.w3.org/2000/svg" xmlns:xlink="http://www.w3.org/1999/xlink" xml:space="preserve" style="fill-rule:evenodd;clip-rule:evenodd;stroke-linejoin:round;stroke-miterlimit:1.41421;"><path d="M12.392,6.196c0,-3.422 -2.774,-6.196 -6.196,-6.196c-3.422,0 -6.196,2.774 -6.196,6.196c0,0.774 0.149,1.512 0.408,2.195l-0.004,0l0.012,0.022c0.143,0.373 0.32,0.728 0.529,1.062l5.251,10.525l5.251,-10.525c0.209,-0.335 0.386,-0.689 0.53,-1.062l0.01,-0.022l-0.003,0c0.259,-0.683 0.408,-1.421 0.408,-2.195ZM6.196,9.386c-1.694,0 -3.068,-1.373 -3.068,-3.067c0,-1.694 1.374,-3.068 3.068,-3.068c1.694,0 3.068,1.373 3.068,3.067c0,1.694 -1.374,3.068 -3.068,3.068Z" style="fill:#484436;fill-rule:nonzero;"/></svg>