<?xml version="1.0" encoding="UTF-8" standalone="no"?>
<svg width="20px" height="20px" viewBox="0 0 20 20" version="1.1" xmlns="http://www.w3.org/2000/svg" xmlns:xlink="http://www.w3.org/1999/xlink">
    <defs></defs>
    <g id="Page-1" stroke="none" stroke-width="1" fill="none" fill-rule="evenodd">
        <g id="icon-cc-attribution" fill="#000000">
            <path d="M12.2,7.2 L12.2,11.1 L11.1,11.1 L11.1,15.7 L8.1,15.7 L8.1,11.1 L7,11.1 L7,7.2 C7,6.9 7.3,6.6 7.6,6.6 L11.6,6.6 C11.9,6.6 12.2,6.9 12.2,7.2 L12.2,7.2 Z M9.6,6.1 C10.3,6.1 10.9,5.5 10.9,4.8 C10.9,4.1 10.3,3.5 9.6,3.5 C8.9,3.5 8.3,4.1 8.3,4.8 C8.3,5.5 8.9,6.1 9.6,6.1 L9.6,6.1 Z M19.2,9.6 C19.2,12.3 18.3,14.5 16.5,16.3 C14.6,18.2 12.3,19.2 9.6,19.2 C7,19.2 4.7,18.3 2.8,16.4 C0.9,14.5 0,12.3 0,9.6 C0,7 0.9,4.7 2.8,2.8 C4.7,0.9 6.9,0 9.6,0 C12.3,0 14.6,0.9 16.4,2.8 C18.3,4.6 19.2,6.9 19.2,9.6 L19.2,9.6 Z M17.5,9.6 C17.5,7.4 16.7,5.6 15.2,4 C13.6,2.5 11.8,1.7 9.6,1.7 C7.4,1.7 5.6,2.5 4.1,4 C2.5,5.6 1.7,7.5 1.7,9.6 C1.7,11.7 2.5,13.6 4,15.1 C5.5,16.6 7.4,17.4 9.6,17.4 C11.7,17.4 13.6,16.6 15.2,15 C16.7,13.6 17.5,11.8 17.5,9.6 L17.5,9.6 Z" id="Shape"></path>
        </g>
    </g>
</svg>