<?xml version="1.0" encoding="UTF-8" standalone="no"?>
<svg width="18px" height="12px" viewBox="0 0 18 12" version="1.1" xmlns="http://www.w3.org/2000/svg" xmlns:xlink="http://www.w3.org/1999/xlink">
    <defs></defs>
    <g id="Page-1" stroke="none" stroke-width="1" fill="none" fill-rule="evenodd">
        <g id="icon-mail" fill="#000000">
            <path d="M0.57400082,1.286 C1.06200082,1.548 7.82200082,5.18 8.07400082,5.315 C8.32600082,5.45 8.65200082,5.514 8.98000082,5.514 C9.30800082,5.514 9.63400082,5.45 9.88600082,5.315 C10.1380008,5.18 16.8980008,1.548 17.3860008,1.286 C17.8750008,1.023 18.3370008,0 17.4400008,0 L0.52100082,0 C-0.37599918,0 0.0860008204,1.023 0.57400082,1.286 L0.57400082,1.286 Z M17.6130008,3.489 C17.0580008,3.778 10.2260008,7.338 9.88600082,7.516 C9.54600082,7.694 9.30800082,7.715 8.98000082,7.715 C8.65200082,7.715 8.41400082,7.694 8.07400082,7.516 C7.73400082,7.338 0.94100082,3.777 0.38600082,3.488 C-0.00399917963,3.284 8.20365468e-07,3.523 8.20365468e-07,3.707 L8.20365468e-07,11 C8.20365468e-07,11.42 0.56600082,12 1.00000082,12 L17.0000008,12 C17.4340008,12 18.0000008,11.42 18.0000008,11 L18.0000008,3.708 C18.0000008,3.524 18.0040008,3.285 17.6130008,3.489 L17.6130008,3.489 Z" id="Shape"></path>
        </g>
    </g>
</svg>