<?xml version="1.0" encoding="UTF-8" standalone="no"?>
<svg width="164px" height="161px" viewBox="0 0 164 161" version="1.1" xmlns="http://www.w3.org/2000/svg" xmlns:xlink="http://www.w3.org/1999/xlink">
    <defs>
        <linearGradient x1="50%" y1="0%" x2="50%" y2="100%" id="linearGradient-1">
            <stop stop-color="#F77916" offset="0%"></stop>
            <stop stop-color="#BA5506" offset="100%"></stop>
        </linearGradient>
    </defs>
    <g id="Page-1" stroke="none" stroke-width="1" fill="none" fill-rule="evenodd">
        <g id="kollegorna-k" transform="translate(-21.000000, -20.000000)" stroke="url(#linearGradient-1)" stroke-width="2.5">
            <path d="M139.693394,178.8 C172.864411,178.8 174.246537,149.789849 172.634057,149.789849 C162.728823,149.321944 156.739611,144.642887 150.520045,132.009434 L138.311268,107.210434 L169.178743,75.3928496 C178.623268,66.2686893 183,57.6124346 183,49.6580383 C183,27.6664724 148.216502,21.349746 147.52544,22.0516045 L94.3135987,86.3886326 L101.684936,51.2957082 C105.370605,33.749246 96.3867875,24.3911328 81.1834045,24.3911328 L72.6602957,24.3911328 C56.7658499,24.3911328 48.7034497,32.5794818 45.0177811,50.3598968 L23.8251865,151.193566 C20.1395179,168.740028 29.1233352,178.098141 44.3267182,178.098141 L52.3891183,178.098141 C68.744273,178.098141 76.806673,169.207934 80.4923414,151.661472 L87.6333245,117.504359 L98.9206848,146.514509 C106.983085,167.336311 115.736548,178.8 139.693394,178.8 L139.693394,178.8 L139.693394,178.8 Z" id="K"></path>
        </g>
    </g>
</svg>