<?xml version="1.0" encoding="UTF-8" standalone="no"?>
<svg width="161px" height="121px" viewBox="0 0 161 121" version="1.1" xmlns="http://www.w3.org/2000/svg" xmlns:xlink="http://www.w3.org/1999/xlink">
    <defs>
        <path id="path-1" d="M-1.42108547e-14,33.8955924 L75.5839987,112.610045 L151.167997,33.8955924 L115.391571,0.160826726 L35.776426,0.160826726 L-1.42108547e-14,33.8955924 L-1.42108547e-14,33.8955924 Z"></path>
        <path id="path-2" d="M40.6358636,6.45822432 C40.6358636,6.45822432 29.9494711,0.741745111 20.2586317,0.741745111 C10.5677923,0.741745111 1.05077961,3.09909711 1.05077961,3.09909711 L0.71892861,7.80187521 C0.71892861,7.80187521 1.46954397,8.55718192 2.8048492,9.9087834 C4.14015443,11.2444837 4.72089369,24.7843503 10.0660652,30.1629291 C15.4112367,35.5454833 29.1079918,35.7124458 33.6235358,32.8502309 C38.127228,29.9959666 42.4768465,19.0718464 42.4768465,14.1941552 L42.4768465,11.5068534 C43.5553623,10.4136463 48.8570771,10.3023379 50.0501605,11.5068534 L50.0501605,14.1941552 C50.0501605,19.0718464 54.399779,29.9999419 58.9034712,32.8502309 C63.4229658,35.7124458 77.1197209,35.5494586 82.4609418,30.1629291 C87.8140145,24.7843503 88.3908032,11.248459 89.7261084,9.9087834 C91.0614136,8.55718192 91.812029,7.80187521 91.812029,7.80187521 L91.480178,3.09909711 C91.480178,3.09909711 81.9671159,0.741745111 72.2723259,0.741745111 C62.5814865,0.741745111 51.895094,6.45822432 51.895094,6.45822432 C49.4970755,5.50812798 43.2472149,5.61943634 40.6358636,6.45822432 L40.6358636,6.45822432 Z"></path>
    </defs>
    <g id="Page-1" stroke="none" stroke-width="1" fill="none" fill-rule="evenodd">
        <g id="Ruby_icon_48889-+-icon_5062" transform="translate(4.000000, 3.000000)">
            <g id="Ruby_icon_48889" transform="translate(0.916001, 0.275391)">
                <g id="Shape">
                    <use stroke="none" xlink:href="#path-1"></use>
                    <use stroke="#EA0000" stroke-width="6" xlink:href="#path-1"></use>
                </g>
            </g>
            <g id="icon_5062" transform="translate(30.233828, 19.546099)">
                <g id="glasses">
                    <use fill="none" xlink:href="#path-2"></use>
                    <use fill="#EA0000" fill-rule="evenodd" xlink:href="#path-2"></use>
                </g>
            </g>
        </g>
    </g>
</svg>